{
  "accessors": [
    {
      "bufferView": 2,
      "componentType": 5126,
      "count": 65532,
      "max": [
        8.222174644470215,
        -0.010674476623535156,
        12.18828296661377
      ],
      "min": [
        -13.913006782531738,
        -18.28826141357422,
        -12.544820785522461
      ],
      "type": "VEC3"
    },
    {
      "bufferView": 2,
      "byteOffset": 786384,
      "componentType": 5126,
      "count": 65532,
      "max": [
        0.9999749064445496,
        0.999911904335022,
        0.9995535612106323
      ],
      "min": [
        -0.9996733665466309,
        -0.9998220205307007,
        -0.9999627470970154
      ],
      "type": "VEC3"
    },
    {
      "bufferView": 3,
      "componentType": 5126,
      "count": 65532,
      "max": [
        0.9999999403953552,
        1.0,
        0.9400550127029419,
        -1.0
      ],
      "min": [
        -1.0,
        -1.0,
        -0.950732946395874,
        -1.0
      ],
      "type": "VEC4"
    },
    {
      "bufferView": 1,
      "componentType": 5126,
      "count": 65532,
      "max": [
        0.9841309785842896,
        0.9685059785842896
      ],
      "min": [
        0.0061039999127388,
        0.015869000926613808
      ],
      "type": "VEC2"
    },
    {
      "bufferView": 0,
      "componentType": 5125,
      "count": 335703,
      "type": "SCALAR"
    },
    {
      "bufferView": 2,
      "byteOffset": 1572768,
      "componentType": 5126,
      "count": 65532,
      "max": [
        4.805166244506836,
        0.40903186798095703,
        13.048768043518066
      ],
      "min": [
        -13.651507377624512,
        -20.05744743347168,
        -12.540055274963379
      ],
      "type": "VEC3"
    },
    {
      "bufferView": 2,
      "byteOffset": 2359152,
      "componentType": 5126,
      "count": 65532,
      "max": [
        0.9929553270339966,
        0.9995967149734497,
        0.9999889731407166
      ],
      "min": [
        -0.9992104172706604,
        -0.9999684691429138,
        -0.9999839663505554
      ],
      "type": "VEC3"
    },
    {
      "bufferView": 3,
      "byteOffset": 1048512,
      "componentType": 5126,
      "count": 65532,
      "max": [
        1.0,
        0.999997615814209,
        0.9644302725791931,
        1.0
      ],
      "min": [
        -1.0,
        -0.9999984502792358,
        -0.9808089733123779,
        -1.0
      ],
      "type": "VEC4"
    },
    {
      "bufferView": 1,
      "byteOffset": 524256,
      "componentType": 5126,
      "count": 65532,
      "max": [
        0.9841309785842896,
        0.9812009930610657
      ],
      "min": [
        0.0061039999127388,
        0.015869999304413795
      ],
      "type": "VEC2"
    },
    {
      "bufferView": 0,
      "byteOffset": 1342812,
      "componentType": 5125,
      "count": 313167,
      "type": "SCALAR"
    },
    {
      "bufferView": 2,
      "byteOffset": 3145536,
      "componentType": 5126,
      "count": 65532,
      "max": [
        4.678524017333984,
        0.4105072021484375,
        13.048768043518066
      ],
      "min": [
        -13.611899375915527,
        -20.449695587158203,
        -11.396098136901855
      ],
      "type": "VEC3"
    },
    {
      "bufferView": 2,
      "byteOffset": 3931920,
      "componentType": 5126,
      "count": 65532,
      "max": [
        0.9993316531181335,
        0.9999184012413025,
        0.9998219013214111
      ],
      "min": [
        -0.9997920989990234,
        -0.9999908804893494,
        -0.9999839663505554
      ],
      "type": "VEC3"
    },
    {
      "bufferView": 3,
      "byteOffset": 2097024,
      "componentType": 5126,
      "count": 65532,
      "max": [
        1.0,
        0.9999958276748657,
        0.9390537142753601,
        1.0
      ],
      "min": [
        -1.0,
        -0.9999986886978149,
        -0.9742999076843262,
        -1.0
      ],
      "type": "VEC4"
    },
    {
      "bufferView": 1,
      "byteOffset": 1048512,
      "componentType": 5126,
      "count": 65532,
      "max": [
        0.9841309785842896,
        0.9812009930610657
      ],
      "min": [
        0.0061039999127388,
        0.015869000926613808
      ],
      "type": "VEC2"
    },
    {
      "bufferView": 0,
      "byteOffset": 2595480,
      "componentType": 5125,
      "count": 312537,
      "type": "SCALAR"
    },
    {
      "bufferView": 2,
      "byteOffset": 4718304,
      "componentType": 5126,
      "count": 22575,
      "max": [
        4.351381301879883,
        -0.6246776580810547,
        12.908308029174805
      ],
      "min": [
        -12.417872428894043,
        -15.294731140136719,
        -10.523646354675293
      ],
      "type": "VEC3"
    },
    {
      "bufferView": 2,
      "byteOffset": 4989204,
      "componentType": 5126,
      "count": 22575,
      "max": [
        0.991972804069519,
        0.9975870847702026,
        0.9992017149925232
      ],
      "min": [
        -0.9989393353462219,
        -0.9990330934524536,
        -0.9990510940551758
      ],
      "type": "VEC3"
    },
    {
      "bufferView": 3,
      "byteOffset": 3145536,
      "componentType": 5126,
      "count": 22575,
      "max": [
        0.9999999403953552,
        0.9999905228614807,
        0.9679496884346008,
        -1.0
      ],
      "min": [
        -0.9999999403953552,
        -0.9999940395355225,
        -0.913760781288147,
        -1.0
      ],
      "type": "VEC4"
    },
    {
      "bufferView": 1,
      "byteOffset": 1572768,
      "componentType": 5126,
      "count": 22575,
      "max": [
        0.9841309785842896,
        0.9812009930610657
      ],
      "min": [
        0.0061039999127388,
        0.015869000926613808
      ],
      "type": "VEC2"
    },
    {
      "bufferView": 0,
      "byteOffset": 3845628,
      "componentType": 5125,
      "count": 88593,
      "type": "SCALAR"
    }
  ],
  "asset": {
    "extras": {
      "author": "Giravolt (https://sketchfab.com/giravolt)",
      "license": "CC-BY-4.0 (http://creativecommons.org/licenses/by/4.0/)",
      "source": "https://sketchfab.com/3d-models/casc-i-clatellera-museu-de-lleida-773b460c8caf4655a1afe58765d5f3eb",
      "title": "Casc i clatellera, Museu de Lleida"
    },
    "generator": "Sketchfab-11.67.0",
    "version": "2.0"
  },
  "bufferViews": [
    {
      "buffer": 0,
      "byteLength": 4200000,
      "name": "floatBufferViews",
      "target": 34963
    },
    {
      "buffer": 0,
      "byteLength": 1753368,
      "byteOffset": 4200000,
      "byteStride": 8,
      "name": "floatBufferViews",
      "target": 34962
    },
    {
      "buffer": 0,
      "byteLength": 5260104,
      "byteOffset": 5953368,
      "byteStride": 12,
      "name": "floatBufferViews",
      "target": 34962
    },
    {
      "buffer": 0,
      "byteLength": 3506736,
      "byteOffset": 11213472,
      "byteStride": 16,
      "name": "floatBufferViews",
      "target": 34962
    }
  ],
  "buffers": [
    {
      "byteLength": 14720208,
      "uri": "scene.bin"
    }
  ],
  "images": [
    {
      "uri": "textures/casc_lq_Material_u1_v1_baseColor.jpeg"
    },
    {
      "uri": "textures/casc_lq_Material_u1_v1_metallicRoughness.png"
    },
    {
      "uri": "textures/casc_lq_Material_u1_v1_normal.png"
    }
  ],
  "materials": [
    {
      "doubleSided": true,
      "name": "casc_lq_Material_u1_v1",
      "normalTexture": {
        "index": 2,
        "scale": 0.9015756768752774
      },
      "pbrMetallicRoughness": {
        "baseColorTexture": {
          "index": 0
        },
        "metallicRoughnessTexture": {
          "index": 1
        }
      }
    }
  ],
  "meshes": [
    {
      "name": "Object_0",
      "primitives": [
        {
          "attributes": {
            "NORMAL": 1,
            "POSITION": 0,
            "TANGENT": 2,
            "TEXCOORD_0": 3
          },
          "indices": 4,
          "material": 0,
          "mode": 4
        }
      ]
    },
    {
      "name": "Object_1",
      "primitives": [
        {
          "attributes": {
            "NORMAL": 6,
            "POSITION": 5,
            "TANGENT": 7,
            "TEXCOORD_0": 8
          },
          "indices": 9,
          "material": 0,
          "mode": 4
        }
      ]
    },
    {
      "name": "Object_2",
      "primitives": [
        {
          "attributes": {
            "NORMAL": 11,
            "POSITION": 10,
            "TANGENT": 12,
            "TEXCOORD_0": 13
          },
          "indices": 14,
          "material": 0,
          "mode": 4
        }
      ]
    },
    {
      "name": "Object_3",
      "primitives": [
        {
          "attributes": {
            "NORMAL": 16,
            "POSITION": 15,
            "TANGENT": 17,
            "TEXCOORD_0": 18
          },
          "indices": 19,
          "material": 0,
          "mode": 4
        }
      ]
    }
  ],
  "nodes": [
    {
      "children": [
        1
      ],
      "matrix": [
        0.06042405217885971,
        0.8877241611480712,
        0.45639318227767967,
        0.0,
        -0.09485792368650436,
        0.4602661430835726,
        -0.8826987147331237,
        0.0,
        -0.9936553239822388,
        0.01004372444003818,
        0.11201881617307663,
        0.0,
        -3.3735198974609375,
        7.387079715728759,
        2.4457080364227313,
        1.0
      ],
      "name": "Sketchfab_model"
    },
    {
      "children": [
        2,
        3,
        4,
        5
      ],
      "name": "casc_lq.obj.cleaner.materialmerger.gles"
    },
    {
      "mesh": 0,
      "name": "Object_2"
    },
    {
      "mesh": 1,
      "name": "Object_3"
    },
    {
      "mesh": 2,
      "name": "Object_4"
    },
    {
      "mesh": 3,
      "name": "Object_5"
    }
  ],
  "samplers": [
    {
      "magFilter": 9729,
      "minFilter": 9987,
      "wrapS": 10497,
      "wrapT": 10497
    },
    {
      "magFilter": 9728,
      "minFilter": 9986,
      "wrapS": 10497,
      "wrapT": 10497
    }
  ],
  "scene": 0,
  "scenes": [
    {
      "name": "Sketchfab_Scene",
      "nodes": [
        0
      ]
    }
  ],
  "textures": [
    {
      "sampler": 0,
      "source": 0
    },
    {
      "sampler": 1,
      "source": 1
    },
    {
      "sampler": 0,
      "source": 2
    }
  ]
}
